<svg width="24" height="24" viewBox="0 0 24 24" fill="currentColor" xmlns="http://www.w3.org/2000/svg">
<path d="M17.3333 8.57143C17.3333 3.83571 13.4542 0 8.66667 0C3.87917 0 0 3.83571 0 8.57143C0 10.4089 0.5875 12.1018 1.58333 13.5C1.025 15.1179 0.104167 16.4036 0.0916667 16.4196C0 16.5429 -0.025 16.725 0.0291667 16.8857C0.0833333 17.0464 0.2 17.1429 0.333333 17.1429C1.85833 17.1429 3.12083 16.4839 4.02917 15.8036C5.37083 16.6446 6.95833 17.1429 8.66667 17.1429C13.4542 17.1429 17.3333 13.3071 17.3333 8.57143ZM22.4167 20.3571C23.4125 18.9643 24 17.2661 24 15.4286C24 11.8446 21.7708 8.775 18.6125 7.49464C18.65 7.84821 18.6667 8.20714 18.6667 8.57143C18.6667 14.2446 14.1792 18.8571 8.66667 18.8571C8.21667 18.8571 7.77917 18.8143 7.34583 18.7554C8.65833 21.8357 11.7417 24 15.3333 24C17.0417 24 18.6292 23.5071 19.9708 22.6607C20.8792 23.3411 22.1417 24 23.6667 24C23.8 24 23.9208 23.8982 23.9708 23.7429C24.025 23.5875 24 23.4054 23.9083 23.2768C23.8958 23.2607 22.975 21.9804 22.4167 20.3571Z"/>
</svg>
