<svg width="20" height="15" viewBox="0 0 20 15" fill="currentColor" xmlns="http://www.w3.org/2000/svg">
<path d="M11.145 0.315118C10.5025 -0.105039 9.49748 -0.105039 8.85498 0.315118L0.782467 5.59414C0.283 5.92077 0 6.37522 0 6.85065V13.2708C0 14.2258 1.11928 15 2.5 15H5C6.38072 15 7.5 14.2258 7.5 13.2708V10.3888C7.5 10.0705 7.8731 9.81248 8.33333 9.81248H11.6667C12.1269 9.81248 12.5 10.0705 12.5 10.3888V13.2708C12.5 14.2258 13.6193 15 15 15H17.5C18.8807 15 20 14.2258 20 13.2708V6.85065C20 6.37522 19.717 5.92077 19.2175 5.59414L11.145 0.315118Z"/>
</svg>
