<svg width="32" height="32" viewBox="0 0 32 32" fill="currentColor" xmlns="http://www.w3.org/2000/svg">
<g clip-path="url(#clip0_161_1840)">
<path d="M16 32C24.8366 32 32 24.8366 32 16C32 7.16344 24.8366 0 16 0C7.16344 0 0 7.16344 0 16C0 24.8366 7.16344 32 16 32Z"/>
<path fill-rule="evenodd" clip-rule="evenodd" d="M16.3 23.3C17 23.3 17.7 23.1 18.4 23C19.2 23.3 20.1 23.3 21 23.2H21.1C21.4 23.2 21.8 23.4 22.4 23.8V23.2C22.4 23 22.5 22.8 22.7 22.7C23 22.6 23.2 22.4 23.4 22.2C24.3 21.5 24.8 20.5 24.8 19.5C24.8 19.2 24.7 18.8 24.6 18.5C24.9 18 25.1 17.5 25.2 17C25.7 17.8 26 18.6 26 19.5C26 20.9 25.3 22.2 24.2 23.2C24 23.4 23.8 23.5 23.6 23.6V25.1C23.6 25.6 23 25.9 22.6 25.6C22.2 25.3 21.8 25 21.4 24.8C21.3 24.7 21.2 24.7 21 24.6C20.7 24.7 20.3 24.7 20 24.7C18.6 24.5 17.3 24 16.3 23.3ZM8.8 20.4C7 18.9 6 16.8 6 14.6C6 10.1 10.3 6.5 15.5 6.5C20.7 6.5 25 10.1 25 14.6C25 19.1 20.7 22.7 15.5 22.7C14.9 22.7 14.3 22.7 13.8 22.6C13.6 22.7 12.6 23.2 11.2 24.3C10.7 24.7 10 24.3 10 23.7V21.2C9.5 20.9 9.1 20.7 8.8 20.4ZM13.8 21.1H13.9C14.4 21.2 14.9 21.2 15.5 21.2C19.9 21.2 23.4 18.2 23.4 14.6C23.4 11 19.9 8 15.5 8C11.1 8 7.6 11 7.6 14.6C7.6 16.3 8.4 18 9.9 19.2C10.3 19.5 10.7 19.8 11.1 20C11.3 20.1 11.5 20.4 11.5 20.7V22.1C12.5 21.4 13.3 21.1 13.8 21.1ZM11.4 16.2C10.7 16.2 10.2 15.6 10.2 15C10.2 14.3 10.8 13.8 11.4 13.8C12.1 13.8 12.6 14.3 12.6 15C12.6 15.7 12.1 16.2 11.4 16.2ZM15.5 16.2C14.8 16.2 14.3 15.6 14.3 15C14.3 14.3 14.9 13.8 15.5 13.8C16.1 13.8 16.7 14.3 16.7 15C16.7 15.7 16.1 16.2 15.5 16.2ZM19.5 16.2C18.8 16.2 18.3 15.6 18.3 15C18.3 14.3 18.9 13.8 19.5 13.8C20.1 13.8 20.7 14.3 20.7 15C20.7 15.7 20.2 16.2 19.5 16.2Z" fill="#FAFAFA"/>
</g>
<defs>
<clipPath id="clip0_161_1840">
<rect width="32" height="32" fill="white"/>
</clipPath>
</defs>
</svg>
