<svg width="33" height="33" viewBox="0 0 33 33" fill="currentColor" xmlns="http://www.w3.org/2000/svg">
<g clip-path="url(#clip0_152_707)">
<path d="M16.3752 32.2739C25.2118 32.2739 32.3752 25.1105 32.3752 16.2739C32.3752 7.43737 25.2118 0.273926 16.3752 0.273926C7.53869 0.273926 0.375244 7.43737 0.375244 16.2739C0.375244 25.1105 7.53869 32.2739 16.3752 32.2739Z"/>
<path fill-rule="evenodd" clip-rule="evenodd" d="M16.6752 23.5739C17.3752 23.5739 18.0752 23.3739 18.7752 23.2739C19.5752 23.5739 20.4752 23.5739 21.3752 23.4739H21.4752C21.7752 23.4739 22.1752 23.6739 22.7752 24.0739V23.4739C22.7752 23.2739 22.8752 23.0739 23.0752 22.9739C23.3752 22.8739 23.5752 22.6739 23.7752 22.4739C24.6752 21.7739 25.1752 20.7739 25.1752 19.7739C25.1752 19.4739 25.0752 19.0739 24.9752 18.7739C25.2752 18.2739 25.4752 17.7739 25.5752 17.2739C26.0752 18.0739 26.3752 18.8739 26.3752 19.7739C26.3752 21.1739 25.6752 22.4739 24.5752 23.4739C24.3752 23.6739 24.1752 23.7739 23.9752 23.8739V25.3739C23.9752 25.8739 23.3752 26.1739 22.9752 25.8739C22.5752 25.5739 22.1752 25.2739 21.7752 25.0739C21.6752 24.9739 21.5752 24.9739 21.3752 24.8739C21.0752 24.9739 20.6752 24.9739 20.3752 24.9739C18.9752 24.7739 17.6752 24.2739 16.6752 23.5739ZM9.17524 20.6739C7.37524 19.1739 6.37524 17.0739 6.37524 14.8739C6.37524 10.3739 10.6752 6.77393 15.8752 6.77393C21.0752 6.77393 25.3752 10.3739 25.3752 14.8739C25.3752 19.3739 21.0752 22.9739 15.8752 22.9739C15.2752 22.9739 14.6752 22.9739 14.1752 22.8739C13.9752 22.9739 12.9752 23.4739 11.5752 24.5739C11.0752 24.9739 10.3752 24.5739 10.3752 23.9739V21.4739C9.87524 21.1739 9.47524 20.9739 9.17524 20.6739ZM14.1752 21.3739H14.2752C14.7752 21.4739 15.2752 21.4739 15.8752 21.4739C20.2752 21.4739 23.7752 18.4739 23.7752 14.8739C23.7752 11.2739 20.2752 8.27393 15.8752 8.27393C11.4752 8.27393 7.97524 11.2739 7.97524 14.8739C7.97524 16.5739 8.77524 18.2739 10.2752 19.4739C10.6752 19.7739 11.0752 20.0739 11.4752 20.2739C11.6752 20.3739 11.8752 20.6739 11.8752 20.9739V22.3739C12.8752 21.6739 13.6752 21.3739 14.1752 21.3739ZM11.7752 16.4739C11.0752 16.4739 10.5752 15.8739 10.5752 15.2739C10.5752 14.5739 11.1752 14.0739 11.7752 14.0739C12.4752 14.0739 12.9752 14.5739 12.9752 15.2739C12.9752 15.9739 12.4752 16.4739 11.7752 16.4739ZM15.8752 16.4739C15.1752 16.4739 14.6752 15.8739 14.6752 15.2739C14.6752 14.5739 15.2752 14.0739 15.8752 14.0739C16.4752 14.0739 17.0752 14.5739 17.0752 15.2739C17.0752 15.9739 16.4752 16.4739 15.8752 16.4739ZM19.8752 16.4739C19.1752 16.4739 18.6752 15.8739 18.6752 15.2739C18.6752 14.5739 19.2752 14.0739 19.8752 14.0739C20.4752 14.0739 21.0752 14.5739 21.0752 15.2739C21.0752 15.9739 20.5752 16.4739 19.8752 16.4739Z" fill="white"/>
</g>
<defs>
<clipPath id="clip0_152_707">
<rect width="32" height="32" fill="white" transform="translate(0.375244 0.273926)"/>
</clipPath>
</defs>
</svg>
