<svg width="20" height="15" viewBox="0 0 20 15" fill="currentColor" xmlns="http://www.w3.org/2000/svg">
<path d="M19.2857 2.7551H0.714285C0.319776 2.7551 -4.76837e-07 2.48101 -4.76837e-07 2.14286V0.612245C-4.76837e-07 0.274094 0.319776 0 0.714285 0H19.2857C19.6802 0 20 0.274094 20 0.612245V2.14286C20 2.48101 19.6802 2.7551 19.2857 2.7551ZM19.2857 8.87755H0.714285C0.319776 8.87755 -4.76837e-07 8.60346 -4.76837e-07 8.26531V6.73469C-4.76837e-07 6.39654 0.319776 6.12245 0.714285 6.12245H19.2857C19.6802 6.12245 20 6.39654 20 6.73469V8.26531C20 8.60346 19.6802 8.87755 19.2857 8.87755ZM19.2857 15H0.714285C0.319776 15 -4.76837e-07 14.7259 -4.76837e-07 14.3878V12.8571C-4.76837e-07 12.519 0.319776 12.2449 0.714285 12.2449H19.2857C19.6802 12.2449 20 12.519 20 12.8571V14.3878C20 14.7259 19.6802 15 19.2857 15Z"/>
</svg>
