<svg width="24" height="24" viewBox="0 0 24 24" fill="currentColor" xmlns="http://www.w3.org/2000/svg">
<path d="M23.1429 4.40816H0.857143C0.383732 4.40816 -2.38419e-07 3.96961 -2.38419e-07 3.42857V0.979592C-2.38419e-07 0.438551 0.383732 0 0.857143 0H23.1429C23.6163 0 24 0.438551 24 0.979592V3.42857C24 3.96961 23.6163 4.40816 23.1429 4.40816ZM23.1429 14.2041H0.857143C0.383732 14.2041 -2.38419e-07 13.7655 -2.38419e-07 13.2245V10.7755C-2.38419e-07 10.2345 0.383732 9.79592 0.857143 9.79592H23.1429C23.6163 9.79592 24 10.2345 24 10.7755V13.2245C24 13.7655 23.6163 14.2041 23.1429 14.2041ZM23.1429 24H0.857143C0.383732 24 -2.38419e-07 23.5614 -2.38419e-07 23.0204V20.5714C-2.38419e-07 20.0304 0.383732 19.5918 0.857143 19.5918H23.1429C23.6163 19.5918 24 20.0304 24 20.5714V23.0204C24 23.5614 23.6163 24 23.1429 24Z"/>
</svg>
